<svg id="Layer_1" height="512" viewBox="0 0 512 512" width="512" xmlns="http://www.w3.org/2000/svg" xmlns:xlink="http://www.w3.org/1999/xlink" data-name="Layer 1"><linearGradient id="linear-gradient" gradientUnits="userSpaceOnUse" x1="184.486" x2="184.486" y1="30" y2="484.159"><stop offset="0" stop-color="#00efd1"/><stop offset="1" stop-color="#00acea"/></linearGradient><linearGradient id="linear-gradient-2" x1="256.238" x2="256.238" xlink:href="#linear-gradient" y1="30" y2="484.159"/><linearGradient id="linear-gradient-3" x1="280.467" x2="280.467" xlink:href="#linear-gradient" y1="30" y2="484.159"/><linearGradient id="linear-gradient-4" x1="385.533" x2="385.533" xlink:href="#linear-gradient" y1="30" y2="484.159"/><linearGradient id="linear-gradient-5" x1="333" x2="333" xlink:href="#linear-gradient" y1="30" y2="484.159"/><path d="m184.453 162h.037v-5.777l.07 6.112a77.693 77.693 0 0 0 54.93-132.678 77.2 77.2 0 0 0 -55.033-22.657h-.036a77.5 77.5 0 1 0 .032 155zm-46.529-123.8a65.269 65.269 0 0 1 46.566-19.2h.031a65.5 65.5 0 1 1 .033 131h-.1a65.446 65.446 0 0 1 -46.53-111.8z" fill="url(#linear-gradient)"/><path d="m333.763 257.742a123.792 123.792 0 0 0 -23.408 2.231 111.877 111.877 0 0 0 -107.38-81.973h-36.806c-61.476 0-111.169 50.252-111.169 111.761v114.777c0 3.314 2.21 6.462 5.523 6.462h152.988a123.97 123.97 0 0 0 120.252 94.4c68.216 0 123.714-55.613 123.714-123.829s-55.498-123.829-123.714-123.829zm-266.763 141.258v-109.229c0-54.893 44.3-99.771 99.179-99.771h36.786a99.928 99.928 0 0 1 95.725 72.741 124.258 124.258 0 0 0 -88.641 118.91 133.06 133.06 0 0 0 1.184 17.349zm266.763 94.169a111.714 111.714 0 1 1 111.714-111.713 111.839 111.839 0 0 1 -111.714 111.713z" fill="url(#linear-gradient-2)"/><path d="m310.272 337.855a6 6 0 0 0 -8.425-1.008l-50.178 39.453a6 6 0 0 0 0 9.433l50.178 39.455a6 6 0 0 0 7.418-9.433l-44.18-34.738 44.18-34.738a6 6 0 0 0 1.007-8.424z" fill="url(#linear-gradient-3)"/><path d="m355.728 337.855a6 6 0 0 0 1.007 8.426l44.18 34.738-44.18 34.738a6 6 0 1 0 7.418 9.433l50.178-39.455a6 6 0 0 0 0-9.433l-50.178-39.455a6 6 0 0 0 -8.425 1.008z" fill="url(#linear-gradient-4)"/><path d="m342.8 316.563a6.007 6.007 0 0 0 -6.83 5.035l-17.808 117.682a6 6 0 1 0 11.865 1.8l17.811-117.682a6 6 0 0 0 -5.038-6.835z" fill="url(#linear-gradient-5)"/></svg>